<?xml version="1.0" encoding="utf-8"?>
<!-- Generator: Adobe Illustrator 27.8.1, SVG Export Plug-In . SVG Version: 6.00 Build 0)  -->
<svg version="1.1" id="Laag_1" xmlns="http://www.w3.org/2000/svg" xmlns:xlink="http://www.w3.org/1999/xlink" x="0px" y="0px"
	 viewBox="0 0 197.23 80.89" style="enable-background:new 0 0 197.23 80.89;" xml:space="preserve">
<style type="text/css">
	.st0{fill:#575756;}
</style>
<polygon class="st0" points="27,32.38 27,49.07 43.41,49.07 43.41,45.92 30.9,45.92 30.9,32.38 "/>
<path class="st0" d="M52.97,45.92h12.82V35.34H52.97V45.92z M49.06,36.33c0-1.55,0.29-2.6,0.88-3.14c0.58-0.54,1.67-0.81,3.28-0.81
	h12.32c1.6,0,2.69,0.27,3.27,0.81c0.58,0.54,0.88,1.58,0.88,3.14v8.79c0,1.55-0.29,2.6-0.88,3.14c-0.58,0.54-1.67,0.81-3.27,0.81
	H53.22c-1.6,0-2.7-0.27-3.28-0.81c-0.59-0.54-0.88-1.59-0.88-3.14V36.33z"/>
<path class="st0" d="M81.7,45.92h12.82V35.34H81.7V45.92z M77.8,36.33c0-1.55,0.29-2.6,0.88-3.14c0.58-0.54,1.68-0.81,3.27-0.81
	h12.32c1.6,0,2.69,0.27,3.27,0.81c0.58,0.54,0.88,1.58,0.88,3.14v8.79c0,1.55-0.29,2.6-0.88,3.14c-0.58,0.54-1.67,0.81-3.27,0.81
	H81.95c-1.6,0-2.69-0.27-3.27-0.81c-0.59-0.54-0.88-1.59-0.88-3.14V36.33z"/>
<path class="st0" d="M110.43,45.92h12.82V35.34h-12.82V45.92z M106.53,36.33c0-1.55,0.29-2.6,0.88-3.14
	c0.59-0.54,1.67-0.81,3.27-0.81h12.32c1.6,0,2.69,0.27,3.27,0.81c0.58,0.54,0.88,1.58,0.88,3.14v8.79c0,1.55-0.29,2.6-0.88,3.14
	c-0.58,0.54-1.68,0.81-3.27,0.81h-12.32c-1.6,0-2.69-0.27-3.27-0.81c-0.58-0.54-0.88-1.59-0.88-3.14V36.33z"/>
<path class="st0" d="M166.49,18.16c-1.1,1.1-11.66,12.54-11.66,12.54c-3.85,4.01-6.49,6.14-8.38,6.14c-0.04,0-0.08,0-0.12,0
	c-1.82-0.09-2.9-1.24-4.77-4.51c-2.3-4.02-3.83-7.16-4.98-9.1c-2.04-3.2-3.63-4.8-5.35-4.8c-1.16,0-2.01,0.32-2.46,1.14
	c-0.63,1.16-1.32,3.61,2.39,7.59c3.15,3.39,4.96,5.69,5.75,6.85c1.99,2.83,3.38,4.41,2.67,7.16c-0.49,1.88-6.97,9.77-9.26,11.74
	c-1.36,1.36-5.5,3.79-8.63,6.71c-3.01,2.81-0.96,5.58,1.51,5.58c4.17,0,6.26-3.71,6.77-4.67c1.82-3.45,5.01-8.16,6.43-9.88
	c2.5-3.05,4.75-4.06,6.18-4.06c2.09,0,5.3,0.66,6.39,6.83c1.28,5.87-0.43,10,1.55,11.98c1.06,1.06,2.27,1.49,3.45,1.49
	c2.83,0,5.49-2.49,5.49-4.74c0-3.98-3.07-5.76-6.37-10.07c-3.65-4.75-4.02-7.4-3.83-9.74c0.14-1.73,1.3-3.94,5.04-6.76
	c4.66-3.53,7.33-5.34,9.75-7.4c1.64-1.39,2.85-2.79,4.37-4.93c1.67-2.35,2.57-5.37,1.17-6.14c-0.22-0.13-0.46-0.18-0.71-0.18
	C167.96,16.93,166.98,17.68,166.49,18.16"/>
</svg>
